<svg xmlns="http://www.w3.org/2000/svg" viewBox="0 0 200 48" width="200" height="48">
  <defs>
    <linearGradient id="navBg" x1="0%" y1="0%" x2="100%" y2="100%">
      <stop offset="0%" style="stop-color:#7C3AED"/>
      <stop offset="50%" style="stop-color:#8B5CF6"/>
      <stop offset="100%" style="stop-color:#A78BFA"/>
    </linearGradient>
    
    <linearGradient id="navCol1" x1="0%" y1="0%" x2="0%" y2="100%">
      <stop offset="0%" style="stop-color:#6D28D9"/>
      <stop offset="100%" style="stop-color:#7C3AED"/>
    </linearGradient>
    
    <linearGradient id="navCol2" x1="0%" y1="0%" x2="0%" y2="100%">
      <stop offset="0%" style="stop-color:#7C3AED"/>
      <stop offset="100%" style="stop-color:#8B5CF6"/>
    </linearGradient>
    
    <linearGradient id="navCol3" x1="0%" y1="0%" x2="0%" y2="100%">
      <stop offset="0%" style="stop-color:#8B5CF6"/>
      <stop offset="100%" style="stop-color:#A78BFA"/>
    </linearGradient>
    
    <linearGradient id="navTextPurple" x1="0%" y1="0%" x2="100%" y2="0%">
      <stop offset="0%" style="stop-color:#6D28D9"/>
      <stop offset="50%" style="stop-color:#7C3AED"/>
      <stop offset="100%" style="stop-color:#8B5CF6"/>
    </linearGradient>
  </defs>
  
  <!-- Icon -->
  <g transform="translate(4, 6)">
    <rect x="0" y="0" width="36" height="36" rx="6" fill="url(#navBg)" opacity="0.1"/>
    
    <rect x="4" y="4" width="8" height="10" rx="2" fill="url(#navCol1)"/>
    <rect x="4" y="15.5" width="8" height="7" rx="2" fill="url(#navCol1)" opacity="0.7"/>
    <rect x="4" y="24" width="8" height="8" rx="2" fill="url(#navCol1)" opacity="0.45"/>
    
    <rect x="14" y="4" width="8" height="13" rx="2" fill="url(#navCol2)"/>
    <rect x="14" y="18.5" width="8" height="9" rx="2" fill="url(#navCol2)" opacity="0.7"/>
    
    <rect x="24" y="4" width="8" height="7" rx="2" fill="url(#navCol3)"/>
    <rect x="24" y="12.5" width="8" height="14" rx="2" fill="url(#navCol3)" opacity="0.7"/>
  </g>
  
  <!-- Text - PURPLE -->
  <text x="48" y="32" font-family="'Poppins', 'Segoe UI', -apple-system, sans-serif" font-size="24" font-weight="800" fill="url(#navTextPurple)" letter-spacing="0.5">
    SYNERGY
  </text>
</svg>
